{
	"accessors": [
		{
			"bufferView": 0,
			"byteOffset": 0,
			"componentType": 5123,
			"count": 60,
			"type": "SCALAR",
			"max": [35],
			"min": [0]
		},
		{
			"bufferView": 1,
			"byteOffset": 0,
			"componentType": 5126,
			"count": 36,
			"type": "VEC3",
			"max": [525, 394, 746],
			"min": [-525, 375, 678.0000610351562],
			"name": "POSITION"
		},
		{
			"bufferView": 1,
			"byteOffset": 12,
			"componentType": 5126,
			"count": 36,
			"type": "VEC2",
			"max": [3.5, -0],
			"min": [-3.5, -3.5],
			"name": "TEXCOORD_0"
		},
		{
			"bufferView": 1,
			"byteOffset": 20,
			"componentType": 5126,
			"count": 36,
			"type": "VEC3",
			"max": [1.0000044107437134, 1.0000044107437134, 1.0000044107437134],
			"min": [
				-1.0000044107437134,
				-1.0000044107437134,
				-1.0000044107437134
			],
			"name": "NORMAL"
		},
		{
			"bufferView": 0,
			"byteOffset": 120,
			"componentType": 5123,
			"count": 60,
			"type": "SCALAR",
			"max": [35],
			"min": [0]
		},
		{
			"bufferView": 2,
			"byteOffset": 0,
			"componentType": 5126,
			"count": 36,
			"type": "VEC3",
			"max": [-525, 394, 746],
			"min": [-544, -394, 678.0000610351562],
			"name": "POSITION"
		},
		{
			"bufferView": 2,
			"byteOffset": 12,
			"componentType": 5126,
			"count": 36,
			"type": "VEC2",
			"max": [2.563333034515381, 1.3133330345153809],
			"min": [-2.563333034515381, -2.563333034515381],
			"name": "TEXCOORD_0"
		},
		{
			"bufferView": 2,
			"byteOffset": 20,
			"componentType": 5126,
			"count": 36,
			"type": "VEC3",
			"max": [1.0000044107437134, 1.0000044107437134, 1.0000044107437134],
			"min": [
				-1.0000044107437134,
				-1.0000044107437134,
				-1.0000044107437134
			],
			"name": "NORMAL"
		},
		{
			"bufferView": 0,
			"byteOffset": 240,
			"componentType": 5123,
			"count": 60,
			"type": "SCALAR",
			"max": [35],
			"min": [0]
		},
		{
			"bufferView": 3,
			"byteOffset": 0,
			"componentType": 5126,
			"count": 36,
			"type": "VEC3",
			"max": [525, -375, 746],
			"min": [-525, -394, 678.0000610351562],
			"name": "POSITION"
		},
		{
			"bufferView": 3,
			"byteOffset": 12,
			"componentType": 5126,
			"count": 36,
			"type": "VEC2",
			"max": [3.5, 3.5],
			"min": [-3.5, -0.22666700184345245],
			"name": "TEXCOORD_0"
		},
		{
			"bufferView": 3,
			"byteOffset": 20,
			"componentType": 5126,
			"count": 36,
			"type": "VEC3",
			"max": [1.0000044107437134, 1.0000044107437134, 1.0000044107437134],
			"min": [
				-1.0000044107437134,
				-1.0000044107437134,
				-1.0000044107437134
			],
			"name": "NORMAL"
		},
		{
			"bufferView": 0,
			"byteOffset": 360,
			"componentType": 5123,
			"count": 60,
			"type": "SCALAR",
			"max": [35],
			"min": [0]
		},
		{
			"bufferView": 4,
			"byteOffset": 0,
			"componentType": 5126,
			"count": 36,
			"type": "VEC3",
			"max": [544, 394, 746],
			"min": [525, -394, 678.0000610351562],
			"name": "POSITION"
		},
		{
			"bufferView": 4,
			"byteOffset": 12,
			"componentType": 5126,
			"count": 36,
			"type": "VEC2",
			"max": [2.563333034515381, 2.563333034515381],
			"min": [-2.563333034515381, -1.3133330345153809],
			"name": "TEXCOORD_0"
		},
		{
			"bufferView": 4,
			"byteOffset": 20,
			"componentType": 5126,
			"count": 36,
			"type": "VEC3",
			"max": [1.0000044107437134, 1.0000044107437134, 1.0000044107437134],
			"min": [
				-1.0000044107437134,
				-1.0000044107437134,
				-1.0000044107437134
			],
			"name": "NORMAL"
		},
		{
			"bufferView": 0,
			"byteOffset": 480,
			"componentType": 5123,
			"count": 60,
			"type": "SCALAR",
			"max": [35],
			"min": [0]
		},
		{
			"bufferView": 5,
			"byteOffset": 0,
			"componentType": 5126,
			"count": 36,
			"type": "VEC3",
			"max": [655, 575, 746],
			"min": [-655, 550, 666],
			"name": "POSITION"
		},
		{
			"bufferView": 5,
			"byteOffset": 12,
			"componentType": 5126,
			"count": 36,
			"type": "VEC2",
			"max": [138, -0],
			"min": [-136.6999969482422, -138],
			"name": "TEXCOORD_0"
		},
		{
			"bufferView": 5,
			"byteOffset": 20,
			"componentType": 5126,
			"count": 36,
			"type": "VEC3",
			"max": [1.0000044107437134, 1.0000044107437134, 1.0000044107437134],
			"min": [
				-1.0000044107437134,
				-1.0000044107437134,
				-1.0000044107437134
			],
			"name": "NORMAL"
		},
		{
			"bufferView": 0,
			"byteOffset": 600,
			"componentType": 5123,
			"count": 60,
			"type": "SCALAR",
			"max": [35],
			"min": [0]
		},
		{
			"bufferView": 6,
			"byteOffset": 0,
			"componentType": 5126,
			"count": 36,
			"type": "VEC3",
			"max": [725, 505, 746],
			"min": [700, -505, 666],
			"name": "POSITION"
		},
		{
			"bufferView": 6,
			"byteOffset": 12,
			"componentType": 5126,
			"count": 36,
			"type": "VEC2",
			"max": [108, 108],
			"min": [-106.69999694824219, -50.5],
			"name": "TEXCOORD_0"
		},
		{
			"bufferView": 6,
			"byteOffset": 20,
			"componentType": 5126,
			"count": 36,
			"type": "VEC3",
			"max": [1.0000044107437134, 1.0000044107437134, 1.0000044107437134],
			"min": [
				-1.0000044107437134,
				-1.0000044107437134,
				-1.0000044107437134
			],
			"name": "NORMAL"
		},
		{
			"bufferView": 0,
			"byteOffset": 720,
			"componentType": 5123,
			"count": 60,
			"type": "SCALAR",
			"max": [35],
			"min": [0]
		},
		{
			"bufferView": 7,
			"byteOffset": 0,
			"componentType": 5126,
			"count": 36,
			"type": "VEC3",
			"max": [655, -550, 746],
			"min": [-655, -575, 666],
			"name": "POSITION"
		},
		{
			"bufferView": 7,
			"byteOffset": 12,
			"componentType": 5126,
			"count": 36,
			"type": "VEC2",
			"max": [138, 138],
			"min": [-136.6999969482422, -8],
			"name": "TEXCOORD_0"
		},
		{
			"bufferView": 7,
			"byteOffset": 20,
			"componentType": 5126,
			"count": 36,
			"type": "VEC3",
			"max": [1.0000044107437134, 1.0000044107437134, 1.0000044107437134],
			"min": [
				-1.0000044107437134,
				-1.0000044107437134,
				-1.0000044107437134
			],
			"name": "NORMAL"
		},
		{
			"bufferView": 0,
			"byteOffset": 840,
			"componentType": 5123,
			"count": 60,
			"type": "SCALAR",
			"max": [35],
			"min": [0]
		},
		{
			"bufferView": 8,
			"byteOffset": 0,
			"componentType": 5126,
			"count": 36,
			"type": "VEC3",
			"max": [-700, 505, 746],
			"min": [-725, -505, 666],
			"name": "POSITION"
		},
		{
			"bufferView": 8,
			"byteOffset": 12,
			"componentType": 5126,
			"count": 36,
			"type": "VEC2",
			"max": [108, 50.5],
			"min": [-106.69999694824219, -108],
			"name": "TEXCOORD_0"
		},
		{
			"bufferView": 8,
			"byteOffset": 20,
			"componentType": 5126,
			"count": 36,
			"type": "VEC3",
			"max": [1.0000044107437134, 1.0000044107437134, 1.0000044107437134],
			"min": [
				-1.0000044107437134,
				-1.0000044107437134,
				-1.0000044107437134
			],
			"name": "NORMAL"
		},
		{
			"bufferView": 0,
			"byteOffset": 960,
			"componentType": 5123,
			"count": 288,
			"type": "SCALAR",
			"max": [109],
			"min": [0]
		},
		{
			"bufferView": 9,
			"byteOffset": 0,
			"componentType": 5126,
			"count": 110,
			"type": "VEC3",
			"max": [725, 575, 765],
			"min": [525, -575, 746],
			"name": "POSITION"
		},
		{
			"bufferView": 9,
			"byteOffset": 12,
			"componentType": 5126,
			"count": 110,
			"type": "VEC2",
			"max": [3.8333330154418945, 1.9166669845581055],
			"min": [-0.33333298563957214, -1.9166669845581055],
			"name": "TEXCOORD_0"
		},
		{
			"bufferView": 9,
			"byteOffset": 20,
			"componentType": 5126,
			"count": 110,
			"type": "VEC3",
			"max": [1.0000044107437134, 0.9848118424415588, 1.0000044107437134],
			"min": [
				-1.0000044107437134,
				-0.9848118424415588,
				-1.0000044107437134
			],
			"name": "NORMAL"
		},
		{
			"bufferView": 0,
			"byteOffset": 1536,
			"componentType": 5123,
			"count": 468,
			"type": "SCALAR",
			"max": [167],
			"min": [0]
		},
		{
			"bufferView": 10,
			"byteOffset": 0,
			"componentType": 5126,
			"count": 168,
			"type": "VEC3",
			"max": [725, -375, 765],
			"min": [-725, -575, 746],
			"name": "POSITION"
		},
		{
			"bufferView": 10,
			"byteOffset": 12,
			"componentType": 5126,
			"count": 168,
			"type": "VEC2",
			"max": [4.8333330154418945, 0.36128300428390503],
			"min": [-2.4166669845581055, -0.36128300428390503],
			"name": "TEXCOORD_0"
		},
		{
			"bufferView": 10,
			"byteOffset": 20,
			"componentType": 5126,
			"count": 168,
			"type": "VEC3",
			"max": [1.0000044107437134, 1.0000044107437134, 1.0000044107437134],
			"min": [
				-1.0000044107437134,
				-1.0000044107437134,
				-1.0000044107437134
			],
			"name": "NORMAL"
		},
		{
			"bufferView": 0,
			"byteOffset": 2472,
			"componentType": 5123,
			"count": 288,
			"type": "SCALAR",
			"max": [109],
			"min": [0]
		},
		{
			"bufferView": 11,
			"byteOffset": 0,
			"componentType": 5126,
			"count": 110,
			"type": "VEC3",
			"max": [-525, 575, 765],
			"min": [-725, -575, 746],
			"name": "POSITION"
		},
		{
			"bufferView": 11,
			"byteOffset": 12,
			"componentType": 5126,
			"count": 110,
			"type": "VEC2",
			"max": [115, 57.5],
			"min": [-10, -57.5],
			"name": "TEXCOORD_0"
		},
		{
			"bufferView": 11,
			"byteOffset": 20,
			"componentType": 5126,
			"count": 110,
			"type": "VEC3",
			"max": [1.0000044107437134, 0.9848118424415588, 1.0000044107437134],
			"min": [
				-1.0000044107437134,
				-0.9848118424415588,
				-1.0000044107437134
			],
			"name": "NORMAL"
		},
		{
			"bufferView": 0,
			"byteOffset": 3048,
			"componentType": 5123,
			"count": 468,
			"type": "SCALAR",
			"max": [167],
			"min": [0]
		},
		{
			"bufferView": 12,
			"byteOffset": 0,
			"componentType": 5126,
			"count": 168,
			"type": "VEC3",
			"max": [725, 575, 765],
			"min": [-725, 375, 746],
			"name": "POSITION"
		},
		{
			"bufferView": 12,
			"byteOffset": 12,
			"componentType": 5126,
			"count": 168,
			"type": "VEC2",
			"max": [4.8333330154418945, 0.36128300428390503],
			"min": [-2.4166669845581055, -0.36128300428390503],
			"name": "TEXCOORD_0"
		},
		{
			"bufferView": 12,
			"byteOffset": 20,
			"componentType": 5126,
			"count": 168,
			"type": "VEC3",
			"max": [1.0000044107437134, 1.0000044107437134, 1.0000044107437134],
			"min": [
				-1.0000044107437134,
				-1.0000044107437134,
				-1.0000044107437134
			],
			"name": "NORMAL"
		},
		{
			"bufferView": 0,
			"byteOffset": 3984,
			"componentType": 5123,
			"count": 36,
			"type": "SCALAR",
			"max": [23],
			"min": [0]
		},
		{
			"bufferView": 13,
			"byteOffset": 0,
			"componentType": 5126,
			"count": 24,
			"type": "VEC3",
			"max": [711.9999389648438, 562, 678.0000610351562],
			"min": [-711.9999389648438, -562, 666],
			"name": "POSITION"
		},
		{
			"bufferView": 13,
			"byteOffset": 12,
			"componentType": 5126,
			"count": 24,
			"type": "VEC2",
			"max": [4.746665954589844, 1.8733329772949219],
			"min": [-2.373332977294922, -1.8733329772949219],
			"name": "TEXCOORD_0"
		},
		{
			"bufferView": 13,
			"byteOffset": 20,
			"componentType": 5126,
			"count": 24,
			"type": "VEC3",
			"max": [1.0000044107437134, 1.0000044107437134, 1.0000044107437134],
			"min": [
				-1.0000044107437134,
				-1.0000044107437134,
				-1.0000044107437134
			],
			"name": "NORMAL"
		},
		{
			"bufferView": 0,
			"byteOffset": 4056,
			"componentType": 5123,
			"count": 36,
			"type": "SCALAR",
			"max": [23],
			"min": [0]
		},
		{
			"bufferView": 14,
			"byteOffset": 0,
			"componentType": 5126,
			"count": 24,
			"type": "VEC3",
			"max": [-655, -505, 746],
			"min": [-725, -575, 0],
			"name": "POSITION"
		},
		{
			"bufferView": 14,
			"byteOffset": 12,
			"componentType": 5126,
			"count": 24,
			"type": "VEC2",
			"max": [7, 3.5],
			"min": [-3.5, -74.5999984741211],
			"name": "TEXCOORD_0"
		},
		{
			"bufferView": 14,
			"byteOffset": 20,
			"componentType": 5126,
			"count": 24,
			"type": "VEC3",
			"max": [1.0000044107437134, 1.0000044107437134, 1.0000044107437134],
			"min": [
				-1.0000044107437134,
				-1.0000044107437134,
				-1.0000044107437134
			],
			"name": "NORMAL"
		},
		{
			"bufferView": 0,
			"byteOffset": 4128,
			"componentType": 5123,
			"count": 36,
			"type": "SCALAR",
			"max": [23],
			"min": [0]
		},
		{
			"bufferView": 15,
			"byteOffset": 0,
			"componentType": 5126,
			"count": 24,
			"type": "VEC3",
			"max": [725, -505, 746],
			"min": [655, -575, 0],
			"name": "POSITION"
		},
		{
			"bufferView": 15,
			"byteOffset": 12,
			"componentType": 5126,
			"count": 24,
			"type": "VEC2",
			"max": [3.5, 3.5],
			"min": [-7, -74.5999984741211],
			"name": "TEXCOORD_0"
		},
		{
			"bufferView": 15,
			"byteOffset": 20,
			"componentType": 5126,
			"count": 24,
			"type": "VEC3",
			"max": [1.0000044107437134, 1.0000044107437134, 1.0000044107437134],
			"min": [
				-1.0000044107437134,
				-1.0000044107437134,
				-1.0000044107437134
			],
			"name": "NORMAL"
		},
		{
			"bufferView": 0,
			"byteOffset": 4200,
			"componentType": 5123,
			"count": 36,
			"type": "SCALAR",
			"max": [23],
			"min": [0]
		},
		{
			"bufferView": 16,
			"byteOffset": 0,
			"componentType": 5126,
			"count": 24,
			"type": "VEC3",
			"max": [-655, 575, 746],
			"min": [-725, 505, 0],
			"name": "POSITION"
		},
		{
			"bufferView": 16,
			"byteOffset": 12,
			"componentType": 5126,
			"count": 24,
			"type": "VEC2",
			"max": [3.5, 3.5],
			"min": [-7, -74.5999984741211],
			"name": "TEXCOORD_0"
		},
		{
			"bufferView": 16,
			"byteOffset": 20,
			"componentType": 5126,
			"count": 24,
			"type": "VEC3",
			"max": [1.0000044107437134, 1.0000044107437134, 1.0000044107437134],
			"min": [
				-1.0000044107437134,
				-1.0000044107437134,
				-1.0000044107437134
			],
			"name": "NORMAL"
		},
		{
			"bufferView": 0,
			"byteOffset": 4272,
			"componentType": 5123,
			"count": 36,
			"type": "SCALAR",
			"max": [23],
			"min": [0]
		},
		{
			"bufferView": 17,
			"byteOffset": 0,
			"componentType": 5126,
			"count": 24,
			"type": "VEC3",
			"max": [725, 575, 746],
			"min": [655, 505, 0],
			"name": "POSITION"
		},
		{
			"bufferView": 17,
			"byteOffset": 12,
			"componentType": 5126,
			"count": 24,
			"type": "VEC2",
			"max": [7, 3.5],
			"min": [-3.5, -74.5999984741211],
			"name": "TEXCOORD_0"
		},
		{
			"bufferView": 17,
			"byteOffset": 20,
			"componentType": 5126,
			"count": 24,
			"type": "VEC3",
			"max": [1.0000044107437134, 1.0000044107437134, 1.0000044107437134],
			"min": [
				-1.0000044107437134,
				-1.0000044107437134,
				-1.0000044107437134
			],
			"name": "NORMAL"
		}
	],
	"asset": { "generator": "Aspose.3D 21.6", "version": "2.0" },
	"buffers": [
		{
			"uri": "data:application/octet-stream;base64,",
			"byteLength": 73920
		}
	],
	"bufferViews": [
		{ "buffer": 0, "byteOffset": 0, "byteLength": 4344, "target": 34963 },
		{
			"buffer": 0,
			"byteOffset": 4348,
			"byteLength": 1920,
			"byteStride": 32,
			"target": 34962
		},
		{
			"buffer": 0,
			"byteOffset": 6272,
			"byteLength": 1920,
			"byteStride": 32,
			"target": 34962
		},
		{
			"buffer": 0,
			"byteOffset": 8196,
			"byteLength": 1920,
			"byteStride": 32,
			"target": 34962
		},
		{
			"buffer": 0,
			"byteOffset": 10120,
			"byteLength": 1920,
			"byteStride": 32,
			"target": 34962
		},
		{
			"buffer": 0,
			"byteOffset": 12044,
			"byteLength": 1920,
			"byteStride": 32,
			"target": 34962
		},
		{
			"buffer": 0,
			"byteOffset": 13968,
			"byteLength": 1920,
			"byteStride": 32,
			"target": 34962
		},
		{
			"buffer": 0,
			"byteOffset": 15892,
			"byteLength": 1920,
			"byteStride": 32,
			"target": 34962
		},
		{
			"buffer": 0,
			"byteOffset": 17816,
			"byteLength": 1920,
			"byteStride": 32,
			"target": 34962
		},
		{
			"buffer": 0,
			"byteOffset": 19740,
			"byteLength": 9216,
			"byteStride": 32,
			"target": 34962
		},
		{
			"buffer": 0,
			"byteOffset": 28960,
			"byteLength": 14976,
			"byteStride": 32,
			"target": 34962
		},
		{
			"buffer": 0,
			"byteOffset": 43940,
			"byteLength": 9216,
			"byteStride": 32,
			"target": 34962
		},
		{
			"buffer": 0,
			"byteOffset": 53160,
			"byteLength": 14976,
			"byteStride": 32,
			"target": 34962
		},
		{
			"buffer": 0,
			"byteOffset": 68140,
			"byteLength": 1152,
			"byteStride": 32,
			"target": 34962
		},
		{
			"buffer": 0,
			"byteOffset": 69296,
			"byteLength": 1152,
			"byteStride": 32,
			"target": 34962
		},
		{
			"buffer": 0,
			"byteOffset": 70452,
			"byteLength": 1152,
			"byteStride": 32,
			"target": 34962
		},
		{
			"buffer": 0,
			"byteOffset": 71608,
			"byteLength": 1152,
			"byteStride": 32,
			"target": 34962
		},
		{
			"buffer": 0,
			"byteOffset": 72764,
			"byteLength": 1152,
			"byteStride": 32,
			"target": 34962
		}
	],
	"meshes": [
		{
			"primitives": [
				{
					"attributes": {
						"POSITION": 1,
						"TEXCOORD_0": 2,
						"NORMAL": 3
					},
					"indices": 0,
					"mode": 4
				}
			],
			"name": ""
		},
		{
			"primitives": [
				{
					"attributes": {
						"POSITION": 5,
						"TEXCOORD_0": 6,
						"NORMAL": 7
					},
					"indices": 4,
					"mode": 4
				}
			],
			"name": ""
		},
		{
			"primitives": [
				{
					"attributes": {
						"POSITION": 9,
						"TEXCOORD_0": 10,
						"NORMAL": 11
					},
					"indices": 8,
					"mode": 4
				}
			],
			"name": ""
		},
		{
			"primitives": [
				{
					"attributes": {
						"POSITION": 13,
						"TEXCOORD_0": 14,
						"NORMAL": 15
					},
					"indices": 12,
					"mode": 4
				}
			],
			"name": ""
		},
		{
			"primitives": [
				{
					"attributes": {
						"POSITION": 17,
						"TEXCOORD_0": 18,
						"NORMAL": 19
					},
					"indices": 16,
					"mode": 4
				}
			],
			"name": ""
		},
		{
			"primitives": [
				{
					"attributes": {
						"POSITION": 21,
						"TEXCOORD_0": 22,
						"NORMAL": 23
					},
					"indices": 20,
					"mode": 4
				}
			],
			"name": ""
		},
		{
			"primitives": [
				{
					"attributes": {
						"POSITION": 25,
						"TEXCOORD_0": 26,
						"NORMAL": 27
					},
					"indices": 24,
					"mode": 4
				}
			],
			"name": ""
		},
		{
			"primitives": [
				{
					"attributes": {
						"POSITION": 29,
						"TEXCOORD_0": 30,
						"NORMAL": 31
					},
					"indices": 28,
					"mode": 4
				}
			],
			"name": ""
		},
		{
			"primitives": [
				{
					"attributes": {
						"POSITION": 33,
						"TEXCOORD_0": 34,
						"NORMAL": 35
					},
					"indices": 32,
					"mode": 4
				}
			],
			"name": ""
		},
		{
			"primitives": [
				{
					"attributes": {
						"POSITION": 37,
						"TEXCOORD_0": 38,
						"NORMAL": 39
					},
					"indices": 36,
					"mode": 4
				}
			],
			"name": ""
		},
		{
			"primitives": [
				{
					"attributes": {
						"POSITION": 41,
						"TEXCOORD_0": 42,
						"NORMAL": 43
					},
					"indices": 40,
					"mode": 4
				}
			],
			"name": ""
		},
		{
			"primitives": [
				{
					"attributes": {
						"POSITION": 45,
						"TEXCOORD_0": 46,
						"NORMAL": 47
					},
					"indices": 44,
					"mode": 4
				}
			],
			"name": ""
		},
		{
			"primitives": [
				{
					"attributes": {
						"POSITION": 49,
						"TEXCOORD_0": 50,
						"NORMAL": 51
					},
					"indices": 48,
					"mode": 4
				}
			],
			"name": ""
		},
		{
			"primitives": [
				{
					"attributes": {
						"POSITION": 53,
						"TEXCOORD_0": 54,
						"NORMAL": 55
					},
					"indices": 52,
					"mode": 4
				}
			],
			"name": ""
		},
		{
			"primitives": [
				{
					"attributes": {
						"POSITION": 57,
						"TEXCOORD_0": 58,
						"NORMAL": 59
					},
					"indices": 56,
					"mode": 4
				}
			],
			"name": ""
		},
		{
			"primitives": [
				{
					"attributes": {
						"POSITION": 61,
						"TEXCOORD_0": 62,
						"NORMAL": 63
					},
					"indices": 60,
					"mode": 4
				}
			],
			"name": ""
		},
		{
			"primitives": [
				{
					"attributes": {
						"POSITION": 65,
						"TEXCOORD_0": 66,
						"NORMAL": 67
					},
					"indices": 64,
					"mode": 4
				}
			],
			"name": ""
		}
	],
	"nodes": [
		{ "mesh": 0, "name": "Solid1" },
		{ "mesh": 1, "name": "Solid1:1" },
		{ "mesh": 2, "name": "Solid1:2" },
		{ "mesh": 3, "name": "Solid1:3" },
		{ "mesh": 4, "name": "Solid1:4" },
		{ "mesh": 5, "name": "Solid1:5" },
		{ "mesh": 6, "name": "Solid1:6" },
		{ "mesh": 7, "name": "Solid1:7" },
		{ "mesh": 8, "name": "Solid1:8" },
		{ "mesh": 9, "name": "Solid1:9" },
		{ "mesh": 10, "name": "Solid1:10" },
		{ "mesh": 11, "name": "Solid1:11" },
		{ "mesh": 12, "name": "Solid1:12" },
		{ "mesh": 13, "name": "Solid2" },
		{ "mesh": 14, "name": "Solid3" },
		{ "mesh": 15, "name": "Solid4" },
		{ "mesh": 16, "name": "Solid5" }
	],
	"scene": 0,
	"scenes": [
		{ "nodes": [0, 1, 2, 3, 4, 5, 6, 7, 8, 9, 10, 11, 12, 13, 14, 15, 16] }
	]
}
