# WaveFront *.obj file (generated by Autodesk ATF)

mtllib Drawer.mtl

g Solid1

v -200.000000 -50.000000 -200.000000
v -200.000000 -50.000000 200.000000
v -200.000000 50.000000 -200.000000
v -200.000000 50.000000 200.000000
v -185.000000 -50.000000 -200.000000
v -185.000000 -50.000000 200.000000
v -185.000000 50.000000 -200.000000
v -185.000000 50.000000 200.000000
vt 0.000000 0.000000 0.000000
vt 40.000000 0.000000 0.000000
vt 40.000000 1.500000 0.000000
vt 0.000000 1.500000 0.000000
vt 0.000000 0.000000 0.000000
vt 10.000000 0.000000 0.000000
vt 10.000000 1.500000 0.000000
vt 0.000000 1.500000 0.000000
vt 0.000000 0.000000 0.000000
vt 40.000000 0.000000 0.000000
vt 40.000000 1.500000 0.000000
vt 0.000000 1.500000 0.000000
vt 0.000000 0.000000 0.000000
vt 10.000000 0.000000 0.000000
vt 10.000000 1.500000 0.000000
vt 0.000000 1.500000 0.000000
vt 20.000000 -5.000000 0.000000
vt 20.000000 5.000000 0.000000
vt -20.000000 5.000000 0.000000
vt -20.000000 -5.000000 0.000000
vt -20.000000 5.000000 0.000000
vt -20.000000 -5.000000 0.000000
vt 20.000000 -5.000000 0.000000
vt 20.000000 5.000000 0.000000
vn 0.000000 -0.100000 0.000000
vn 0.000000 -0.100000 0.000000
vn 0.000000 -0.100000 0.000000
vn 0.000000 -0.100000 0.000000
vn 0.000000 0.000000 0.100000
vn 0.000000 0.000000 0.100000
vn 0.000000 0.000000 0.100000
vn 0.000000 0.000000 0.100000
vn 0.000000 0.100000 0.000000
vn 0.000000 0.100000 0.000000
vn 0.000000 0.100000 0.000000
vn 0.000000 0.100000 0.000000
vn 0.000000 0.000000 -0.100000
vn 0.000000 0.000000 -0.100000
vn 0.000000 0.000000 -0.100000
vn 0.000000 0.000000 -0.100000
vn 0.100000 0.000000 0.000000
vn 0.100000 0.000000 0.000000
vn 0.100000 0.000000 0.000000
vn 0.100000 0.000000 0.000000
vn -0.100000 0.000000 0.000000
vn -0.100000 0.000000 0.000000
vn -0.100000 0.000000 0.000000
vn -0.100000 0.000000 0.000000
usemtl 191,191,191
f 2/1/1 1/2/2 6/4/4
f 6/4/4 1/2/2 5/3/3
f 4/5/5 2/6/6 8/8/8
f 8/8/8 2/6/6 6/7/7
f 3/9/9 4/10/10 7/12/12
f 7/12/12 4/10/10 8/11/11
f 1/13/13 3/14/14 5/16/16
f 5/16/16 3/14/14 7/15/15
f 7/18/18 8/19/19 5/17/17
f 5/17/17 8/19/19 6/20/20
f 1/22/22 2/23/23 3/21/21
f 3/21/21 2/23/23 4/24/24

g Solid2

v 185.000000 -50.000000 -200.000000
v 185.000000 -50.000000 200.000000
v 185.000000 50.000000 -200.000000
v 185.000000 50.000000 200.000000
v 200.000000 -50.000000 -200.000000
v 200.000000 -50.000000 200.000000
v 200.000000 50.000000 -200.000000
v 200.000000 50.000000 200.000000
vt -40.000000 0.000000 0.000000
vt -0.000000 0.000000 0.000000
vt -0.000000 1.500000 0.000000
vt -40.000000 1.500000 0.000000
vt -10.000000 0.000000 0.000000
vt -0.000000 0.000000 0.000000
vt -0.000000 1.500000 0.000000
vt -10.000000 1.500000 0.000000
vt -40.000000 0.000000 0.000000
vt -0.000000 0.000000 0.000000
vt -0.000000 1.500000 0.000000
vt -40.000000 1.500000 0.000000
vt -10.000000 0.000000 0.000000
vt -0.000000 0.000000 0.000000
vt -0.000000 1.500000 0.000000
vt -10.000000 1.500000 0.000000
vt -20.000000 5.000000 0.000000
vt -20.000000 -5.000000 0.000000
vt 20.000000 -5.000000 0.000000
vt 20.000000 5.000000 0.000000
vt 20.000000 -5.000000 0.000000
vt 20.000000 5.000000 0.000000
vt -20.000000 5.000000 0.000000
vt -20.000000 -5.000000 0.000000
vn 0.000000 -0.100000 0.000000
vn 0.000000 -0.100000 0.000000
vn 0.000000 -0.100000 0.000000
vn 0.000000 -0.100000 0.000000
vn 0.000000 0.000000 0.100000
vn 0.000000 0.000000 0.100000
vn 0.000000 0.000000 0.100000
vn 0.000000 0.000000 0.100000
vn 0.000000 0.100000 0.000000
vn 0.000000 0.100000 0.000000
vn 0.000000 0.100000 0.000000
vn 0.000000 0.100000 0.000000
vn 0.000000 0.000000 -0.100000
vn 0.000000 0.000000 -0.100000
vn 0.000000 0.000000 -0.100000
vn 0.000000 0.000000 -0.100000
vn -0.100000 0.000000 0.000000
vn -0.100000 0.000000 0.000000
vn -0.100000 0.000000 0.000000
vn -0.100000 0.000000 0.000000
vn 0.100000 0.000000 0.000000
vn 0.100000 0.000000 0.000000
vn 0.100000 0.000000 0.000000
vn 0.100000 0.000000 0.000000
f 13/25/25 14/26/26 9/28/28
f 9/28/28 14/26/26 10/27/27
f 14/29/29 16/30/30 10/32/32
f 10/32/32 16/30/30 12/31/31
f 16/33/33 15/34/34 12/36/36
f 12/36/36 15/34/34 11/35/35
f 15/37/37 13/38/38 11/40/40
f 11/40/40 13/38/38 9/39/39
f 9/42/42 10/43/43 11/41/41
f 11/41/41 10/43/43 12/44/44
f 15/46/46 16/47/47 13/45/45
f 13/45/45 16/47/47 14/48/48

g Solid3

v -185.000000 -50.000000 185.000000
v -185.000000 -50.000000 200.000000
v -185.000000 50.000000 185.000000
v -185.000000 50.000000 200.000000
v 185.000000 -50.000000 185.000000
v 185.000000 -50.000000 200.000000
v 185.000000 50.000000 185.000000
v 185.000000 50.000000 200.000000
vt 10.000000 18.500000 0.000000
vt 0.000000 18.500000 0.000000
vt 0.000000 -18.500000 0.000000
vt 10.000000 -18.500000 0.000000
vt 1.500000 18.500000 0.000000
vt 0.000000 18.500000 0.000000
vt 0.000000 -18.500000 0.000000
vt 1.500000 -18.500000 0.000000
vt 10.000000 18.500000 0.000000
vt 0.000000 18.500000 0.000000
vt 0.000000 -18.500000 0.000000
vt 10.000000 -18.500000 0.000000
vt 1.500000 18.500000 0.000000
vt 0.000000 18.500000 0.000000
vt 0.000000 -18.500000 0.000000
vt 1.500000 -18.500000 0.000000
vt 0.750000 5.000000 0.000000
vt -0.750000 5.000000 0.000000
vt -0.750000 -5.000000 0.000000
vt 0.750000 -5.000000 0.000000
vt 0.750000 5.000000 0.000000
vt -0.750000 5.000000 0.000000
vt -0.750000 -5.000000 0.000000
vt 0.750000 -5.000000 0.000000
vn 0.000000 0.000000 0.100000
vn 0.000000 0.000000 0.100000
vn 0.000000 0.000000 0.100000
vn 0.000000 0.000000 0.100000
vn 0.000000 0.100000 0.000000
vn 0.000000 0.100000 0.000000
vn 0.000000 0.100000 0.000000
vn 0.000000 0.100000 0.000000
vn 0.000000 0.000000 -0.100000
vn 0.000000 0.000000 -0.100000
vn 0.000000 0.000000 -0.100000
vn 0.000000 0.000000 -0.100000
vn 0.000000 -0.100000 0.000000
vn 0.000000 -0.100000 0.000000
vn 0.000000 -0.100000 0.000000
vn 0.000000 -0.100000 0.000000
vn -0.100000 0.000000 0.000000
vn -0.100000 0.000000 0.000000
vn -0.100000 0.000000 0.000000
vn -0.100000 0.000000 0.000000
vn 0.100000 0.000000 0.000000
vn 0.100000 0.000000 0.000000
vn 0.100000 0.000000 0.000000
vn 0.100000 0.000000 0.000000
f 22/49/49 24/50/50 18/52/52
f 18/52/52 24/50/50 20/51/51
f 24/53/53 23/54/54 20/56/56
f 20/56/56 23/54/54 19/55/55
f 23/57/57 21/58/58 19/60/60
f 19/60/60 21/58/58 17/59/59
f 21/61/61 22/62/62 17/64/64
f 17/64/64 22/62/62 18/63/63
f 20/65/65 19/66/66 18/68/68
f 18/68/68 19/66/66 17/67/67
f 23/69/69 24/70/70 21/72/72
f 21/72/72 24/70/70 22/71/71

g Solid4

v -185.000000 -50.000000 -200.000000
v -185.000000 -50.000000 -185.000000
v -185.000000 50.000000 -200.000000
v -185.000000 50.000000 -185.000000
v 185.000000 -50.000000 -200.000000
v 185.000000 -50.000000 -185.000000
v 185.000000 50.000000 -200.000000
v 185.000000 50.000000 -185.000000
vt -0.000000 18.500000 0.000000
vt -10.000000 18.500000 0.000000
vt -10.000000 -18.500000 0.000000
vt -0.000000 -18.500000 0.000000
vt -0.000000 18.500000 0.000000
vt -1.500000 18.500000 0.000000
vt -1.500000 -18.500000 0.000000
vt -0.000000 -18.500000 0.000000
vt -0.000000 18.500000 0.000000
vt -10.000000 18.500000 0.000000
vt -10.000000 -18.500000 0.000000
vt -0.000000 -18.500000 0.000000
vt -0.000000 18.500000 0.000000
vt -1.500000 18.500000 0.000000
vt -1.500000 -18.500000 0.000000
vt -0.000000 -18.500000 0.000000
vt 0.750000 5.000000 0.000000
vt -0.750000 5.000000 0.000000
vt -0.750000 -5.000000 0.000000
vt 0.750000 -5.000000 0.000000
vt 0.750000 5.000000 0.000000
vt -0.750000 5.000000 0.000000
vt -0.750000 -5.000000 0.000000
vt 0.750000 -5.000000 0.000000
vn 0.000000 0.000000 -0.100000
vn 0.000000 0.000000 -0.100000
vn 0.000000 0.000000 -0.100000
vn 0.000000 0.000000 -0.100000
vn 0.000000 0.100000 0.000000
vn 0.000000 0.100000 0.000000
vn 0.000000 0.100000 0.000000
vn 0.000000 0.100000 0.000000
vn 0.000000 0.000000 0.100000
vn 0.000000 0.000000 0.100000
vn 0.000000 0.000000 0.100000
vn 0.000000 0.000000 0.100000
vn 0.000000 -0.100000 0.000000
vn 0.000000 -0.100000 0.000000
vn 0.000000 -0.100000 0.000000
vn 0.000000 -0.100000 0.000000
vn -0.100000 0.000000 0.000000
vn -0.100000 0.000000 0.000000
vn -0.100000 0.000000 0.000000
vn -0.100000 0.000000 0.000000
vn 0.100000 0.000000 0.000000
vn 0.100000 0.000000 0.000000
vn 0.100000 0.000000 0.000000
vn 0.100000 0.000000 0.000000
f 31/73/73 29/74/74 27/76/76
f 27/76/76 29/74/74 25/75/75
f 32/77/77 31/78/78 28/80/80
f 28/80/80 31/78/78 27/79/79
f 30/81/81 32/82/82 26/84/84
f 26/84/84 32/82/82 28/83/83
f 29/85/85 30/86/86 25/88/88
f 25/88/88 30/86/86 26/87/87
f 28/89/89 27/90/90 26/92/92
f 26/92/92 27/90/90 25/91/91
f 31/93/93 32/94/94 29/96/96
f 29/96/96 32/94/94 30/95/95

g Solid5

v -185.000000 -40.000000 -185.000000
v -185.000000 -40.000000 185.000000
v -185.000000 -37.000000 -185.000000
v -185.000000 -37.000000 185.000000
v 185.000000 -40.000000 -185.000000
v 185.000000 -40.000000 185.000000
v 185.000000 -37.000000 -185.000000
v 185.000000 -37.000000 185.000000
vt 0.000000 0.000000 0.000000
vt 37.000000 0.000000 0.000000
vt 37.000000 0.300000 0.000000
vt 0.000000 0.300000 0.000000
vt 0.000000 0.000000 0.000000
vt 37.000000 0.000000 0.000000
vt 37.000000 0.300000 0.000000
vt 0.000000 0.300000 0.000000
vt 0.000000 0.000000 0.000000
vt 37.000000 0.000000 0.000000
vt 37.000000 0.300000 0.000000
vt 0.000000 0.300000 0.000000
vt 0.000000 0.000000 0.000000
vt 37.000000 0.000000 0.000000
vt 37.000000 0.300000 0.000000
vt 0.000000 0.300000 0.000000
vt 18.500000 -18.500000 0.000000
vt 18.500000 18.500000 0.000000
vt -18.500000 18.500000 0.000000
vt -18.500000 -18.500000 0.000000
vt -18.500000 18.500000 0.000000
vt -18.500000 -18.500000 0.000000
vt 18.500000 -18.500000 0.000000
vt 18.500000 18.500000 0.000000
vn -0.100000 0.000000 0.000000
vn -0.100000 0.000000 0.000000
vn -0.100000 0.000000 0.000000
vn -0.100000 0.000000 0.000000
vn 0.000000 0.000000 -0.100000
vn 0.000000 0.000000 -0.100000
vn 0.000000 0.000000 -0.100000
vn 0.000000 0.000000 -0.100000
vn 0.100000 0.000000 0.000000
vn 0.100000 0.000000 0.000000
vn 0.100000 0.000000 0.000000
vn 0.100000 0.000000 0.000000
vn 0.000000 0.000000 0.100000
vn 0.000000 0.000000 0.100000
vn 0.000000 0.000000 0.100000
vn 0.000000 0.000000 0.100000
vn 0.000000 0.100000 0.000000
vn 0.000000 0.100000 0.000000
vn 0.000000 0.100000 0.000000
vn 0.000000 0.100000 0.000000
vn 0.000000 -0.100000 0.000000
vn 0.000000 -0.100000 0.000000
vn 0.000000 -0.100000 0.000000
vn 0.000000 -0.100000 0.000000
f 33/97/97 34/98/98 35/100/100
f 35/100/100 34/98/98 36/99/99
f 37/101/101 33/102/102 39/104/104
f 39/104/104 33/102/102 35/103/103
f 38/105/105 37/106/106 40/108/108
f 40/108/108 37/106/106 39/107/107
f 34/109/109 38/110/110 36/112/112
f 36/112/112 38/110/110 40/111/111
f 40/114/114 39/115/115 36/113/113
f 36/113/113 39/115/115 35/116/116
f 34/118/118 33/119/119 38/117/117
f 38/117/117 33/119/119 37/120/120

g Solid6

v -210.000000 -60.000000 200.000000
v -210.000000 -60.000000 217.999992
v -210.000000 150.000000 200.000000
v -210.000000 150.000000 217.999992
v -20.000000 95.653267 200.000000
v -19.776616 92.672415 217.999992
v -19.776616 98.634109 217.999992
v -19.111456 89.758158 200.000000
v -19.111456 101.548367 200.000000
v -18.019377 86.975594 217.999992
v -18.019377 104.330940 217.999992
v -16.524775 84.386864 200.000000
v -16.524775 106.919661 200.000000
v -14.661038 82.049809 217.999992
v -14.661038 109.256716 217.999992
v -12.469796 80.016632 200.000000
v -12.469796 111.289892 200.000000
v -10.000000 78.332758 217.999992
v -10.000000 112.973776 217.999992
v -7.306821 77.035789 200.000000
v -7.306821 114.270735 200.000000
v -4.450419 76.154704 217.999992
v -4.450419 115.151825 217.999992
v -1.494602 75.709186 200.000000
v -1.494602 115.597343 200.000000
v 1.494602 75.709186 217.999992
v 1.494602 115.597343 217.999992
v 4.450419 76.154704 200.000000
v 4.450419 115.151825 200.000000
v 7.306821 77.035789 217.999992
v 7.306821 114.270735 217.999992
v 10.000000 78.332758 200.000000
v 10.000000 112.973776 200.000000
v 12.469796 80.016632 217.999992
v 12.469796 111.289892 217.999992
v 14.661038 82.049809 200.000000
v 14.661038 109.256716 200.000000
v 16.524775 84.386864 217.999992
v 16.524775 106.919661 217.999992
v 18.019377 86.975594 200.000000
v 18.019377 104.330940 200.000000
v 19.111456 89.758158 217.999992
v 19.111456 101.548367 217.999992
v 19.776616 92.672415 200.000000
v 19.776616 98.634109 200.000000
v 20.000000 95.653267 217.999992
v 210.000000 -60.000000 200.000000
v 210.000000 -60.000000 217.999992
v 210.000000 150.000000 200.000000
v 210.000000 150.000000 217.999992
vt 0.000000 0.000000 0.000000
vt 21.000000 0.000000 0.000000
vt 21.000000 1.800000 0.000000
vt 0.000000 1.800000 0.000000
vt 0.000000 0.000000 0.000000
vt 42.000000 0.000000 0.000000
vt 42.000000 1.800000 0.000000
vt 0.000000 1.800000 0.000000
vt 0.000000 0.000000 0.000000
vt 21.000000 0.000000 0.000000
vt 21.000000 1.800000 0.000000
vt 0.000000 1.800000 0.000000
vt 0.000000 0.000000 0.000000
vt 42.000000 0.000000 0.000000
vt 42.000000 1.800000 0.000000
vt 0.000000 1.800000 0.000000
vt 2.000000 5.065326 0.000000
vt 1.911146 4.475816 0.000000
vt 1.652478 3.938686 0.000000
vt 1.246980 3.501663 0.000000
vt 0.730682 3.203579 0.000000
vt 0.149460 3.070919 0.000000
vt -0.445042 3.115471 0.000000
vt -1.000000 3.333276 0.000000
vt -1.466104 3.704981 0.000000
vt -1.801938 4.197559 0.000000
vt -1.977662 4.767242 0.000000
vt -1.977662 5.363411 0.000000
vt -1.801938 5.933094 0.000000
vt -1.466104 6.425672 0.000000
vt -1.000000 6.797377 0.000000
vt -0.445042 7.015182 0.000000
vt 0.149460 7.059734 0.000000
vt 0.730682 6.927074 0.000000
vt 1.246980 6.628989 0.000000
vt 1.652478 6.191967 0.000000
vt 1.911146 5.654837 0.000000
vt 21.000000 10.500000 0.000000
vt -21.000000 10.500000 0.000000
vt -21.000000 -10.500000 0.000000
vt 21.000000 -10.500000 0.000000
vt 2.000000 5.065326 0.000000
vt 1.911146 4.475816 0.000000
vt 1.652478 3.938686 0.000000
vt 1.246980 3.501663 0.000000
vt 0.730682 3.203579 0.000000
vt 0.149460 3.070919 0.000000
vt -0.445042 3.115471 0.000000
vt -1.000000 3.333276 0.000000
vt -1.466104 3.704981 0.000000
vt -1.801938 4.197559 0.000000
vt -1.977662 4.767242 0.000000
vt -1.977662 5.363411 0.000000
vt -1.801938 5.933094 0.000000
vt -1.466104 6.425672 0.000000
vt -1.000000 6.797377 0.000000
vt -0.445042 7.015182 0.000000
vt 0.149460 7.059734 0.000000
vt 0.730682 6.927074 0.000000
vt 1.246980 6.628989 0.000000
vt 1.652478 6.191967 0.000000
vt 1.911146 5.654837 0.000000
vt 21.000000 10.500000 0.000000
vt -21.000000 10.500000 0.000000
vt -21.000000 -10.500000 0.000000
vt 21.000000 -10.500000 0.000000
vt 45.191914 6.283185 0.000000
vt 45.191914 5.684787 0.000000
vt 45.191914 5.086388 0.000000
vt 45.191914 4.487989 0.000000
vt 45.191914 3.889591 0.000000
vt 45.191914 3.291192 0.000000
vt 45.191914 2.692794 0.000000
vt 45.191914 2.094395 0.000000
vt 45.191914 1.495996 0.000000
vt 45.191914 0.897598 0.000000
vt 45.191914 0.299199 0.000000
vt 45.191914 -0.299199 0.000000
vt 45.191914 -0.897598 0.000000
vt 45.191914 -1.495996 0.000000
vt 45.191914 -2.094395 0.000000
vt 45.191914 -2.692794 0.000000
vt 45.191914 -3.291192 0.000000
vt 45.191914 -3.889591 0.000000
vt 45.191914 -4.487989 0.000000
vt 45.191914 -5.086388 0.000000
vt 45.191914 -5.684787 0.000000
vt 46.991913 0.000000 0.000000
vt 46.991913 0.598399 0.000000
vt 46.991913 1.196797 0.000000
vt 46.991913 1.795196 0.000000
vt 46.991913 2.393595 0.000000
vt 46.991913 2.991993 0.000000
vt 46.991913 3.590392 0.000000
vt 46.991913 4.188790 0.000000
vt 46.991913 4.787189 0.000000
vt 46.991913 5.385587 0.000000
vt 46.991913 -6.582385 0.000000
vt 46.991913 -5.983986 0.000000
vt 46.991913 -5.385587 0.000000
vt 46.991913 -4.787189 0.000000
vt 46.991913 -4.188790 0.000000
vt 46.991913 -3.590392 0.000000
vt 46.991913 -2.991993 0.000000
vt 46.991913 -2.393595 0.000000
vt 46.991913 -1.795196 0.000000
vt 46.991913 -1.196797 0.000000
vt 46.991913 -0.598399 0.000000
vt 46.991913 5.983986 0.000000
vt 45.191914 -6.283185 0.000000
vt 45.191914 -6.283185 0.000000
vt 46.991913 5.983986 0.000000
vn 0.100000 0.000000 0.000000
vn 0.100000 0.000000 0.000000
vn 0.100000 0.000000 0.000000
vn 0.100000 0.000000 0.000000
vn 0.000000 -0.100000 0.000000
vn 0.000000 -0.100000 0.000000
vn 0.000000 -0.100000 0.000000
vn 0.000000 -0.100000 0.000000
vn -0.100000 0.000000 0.000000
vn -0.100000 0.000000 0.000000
vn -0.100000 0.000000 0.000000
vn -0.100000 0.000000 0.000000
vn 0.000000 0.100000 0.000000
vn 0.000000 0.100000 0.000000
vn 0.000000 0.100000 0.000000
vn 0.000000 0.100000 0.000000
vn 0.000000 0.000000 -0.100000
vn 0.000000 0.000000 -0.100000
vn 0.000000 0.000000 -0.100000
vn 0.000000 0.000000 -0.100000
vn 0.000000 0.000000 -0.100000
vn 0.000000 0.000000 -0.100000
vn 0.000000 0.000000 -0.100000
vn 0.000000 0.000000 -0.100000
vn 0.000000 0.000000 -0.100000
vn 0.000000 0.000000 -0.100000
vn 0.000000 0.000000 -0.100000
vn 0.000000 0.000000 -0.100000
vn 0.000000 0.000000 -0.100000
vn 0.000000 0.000000 -0.100000
vn 0.000000 0.000000 -0.100000
vn 0.000000 0.000000 -0.100000
vn 0.000000 0.000000 -0.100000
vn 0.000000 0.000000 -0.100000
vn 0.000000 0.000000 -0.100000
vn 0.000000 0.000000 -0.100000
vn 0.000000 0.000000 -0.100000
vn 0.000000 0.000000 -0.100000
vn 0.000000 0.000000 -0.100000
vn 0.000000 0.000000 -0.100000
vn 0.000000 0.000000 -0.100000
vn 0.000000 0.000000 0.100000
vn 0.000000 0.000000 0.100000
vn 0.000000 0.000000 0.100000
vn 0.000000 0.000000 0.100000
vn 0.000000 0.000000 0.100000
vn 0.000000 0.000000 0.100000
vn 0.000000 0.000000 0.100000
vn 0.000000 0.000000 0.100000
vn 0.000000 0.000000 0.100000
vn 0.000000 0.000000 0.100000
vn 0.000000 0.000000 0.100000
vn 0.000000 0.000000 0.100000
vn 0.000000 0.000000 0.100000
vn 0.000000 0.000000 0.100000
vn 0.000000 0.000000 0.100000
vn 0.000000 0.000000 0.100000
vn 0.000000 0.000000 0.100000
vn 0.000000 0.000000 0.100000
vn 0.000000 0.000000 0.100000
vn 0.000000 0.000000 0.100000
vn 0.000000 0.000000 0.100000
vn 0.000000 0.000000 0.100000
vn 0.000000 0.000000 0.100000
vn 0.000000 0.000000 0.100000
vn 0.000000 0.000000 0.100000
vn 0.100000 0.000000 0.000000
vn 0.095557 -0.029476 0.000000
vn 0.082624 -0.056332 0.000000
vn 0.062349 -0.078183 0.000000
vn 0.036534 -0.093087 0.000000
vn 0.007473 -0.099720 0.000000
vn -0.022252 -0.097493 0.000000
vn -0.050000 -0.086603 0.000000
vn -0.073305 -0.068017 0.000000
vn -0.090097 -0.043388 0.000000
vn -0.098883 -0.014904 0.000000
vn -0.098883 0.014904 0.000000
vn -0.090097 0.043388 0.000000
vn -0.073305 0.068017 0.000000
vn -0.050000 0.086603 0.000000
vn -0.022252 0.097493 0.000000
vn 0.007473 0.099720 0.000000
vn 0.036534 0.093087 0.000000
vn 0.062349 0.078183 0.000000
vn 0.082624 0.056332 0.000000
vn 0.095557 0.029476 0.000000
vn -0.100000 0.000000 0.000000
vn -0.095557 -0.029476 0.000000
vn -0.082624 -0.056332 0.000000
vn -0.062349 -0.078183 0.000000
vn -0.036534 -0.093087 0.000000
vn -0.007473 -0.099720 0.000000
vn 0.022252 -0.097493 0.000000
vn 0.050000 -0.086603 0.000000
vn 0.073305 -0.068017 0.000000
vn 0.090097 -0.043388 0.000000
vn 0.098883 -0.014904 0.000000
vn 0.098883 0.014904 0.000000
vn 0.090097 0.043388 0.000000
vn 0.073305 0.068017 0.000000
vn 0.050000 0.086603 0.000000
vn 0.022252 0.097493 0.000000
vn -0.007473 0.099720 0.000000
vn -0.036534 0.093087 0.000000
vn -0.062349 0.078183 0.000000
vn -0.082624 0.056332 0.000000
vn -0.095557 0.029476 0.000000
vn 0.098883 -0.014904 0.000000
vn 0.100000 0.000000 0.000000
vn 0.100000 0.000000 0.000000
vn 0.098883 -0.014904 0.000000
f 87/121/121 89/122/122 88/124/124
f 88/124/124 89/122/122 90/123/123
f 41/125/125 87/126/126 42/128/128
f 42/128/128 87/126/126 88/127/127
f 43/129/129 41/130/130 44/132/132
f 44/132/132 41/130/130 42/131/131
f 89/133/133 43/134/134 90/136/136
f 90/136/136 43/134/134 44/135/135
f 49/157/157 45/137/137 43/158/158
f 43/158/158 45/137/137 48/138/138
f 43/158/158 48/138/138 52/139/139
f 43/158/158 52/139/139 41/161/161
f 41/161/161 52/139/139 56/140/140
f 41/161/161 56/140/140 60/141/141
f 60/141/141 64/142/142 41/161/161
f 41/161/161 64/142/142 87/160/160
f 87/160/160 64/142/142 68/143/143
f 87/160/160 68/143/143 72/144/144
f 72/144/144 76/145/145 87/160/160
f 87/160/160 76/145/145 89/159/159
f 89/159/159 76/145/145 80/146/146
f 89/159/159 80/146/146 84/147/147
f 84/147/147 85/148/148 89/159/159
f 89/159/159 85/148/148 81/149/149
f 89/159/159 81/149/149 77/150/150
f 77/150/150 73/151/151 89/159/159
f 89/159/159 73/151/151 69/152/152
f 89/159/159 69/152/152 65/153/153
f 89/159/159 65/153/153 43/158/158
f 43/158/158 65/153/153 61/154/154
f 43/158/158 61/154/154 57/155/155
f 57/155/155 53/156/156 43/158/158
f 43/158/158 53/156/156 49/157/157
f 83/182/182 86/162/162 90/183/183
f 90/183/183 86/162/162 82/163/163
f 90/183/183 82/163/163 78/164/164
f 90/183/183 78/164/164 88/186/186
f 88/186/186 78/164/164 74/165/165
f 88/186/186 74/165/165 70/166/166
f 70/166/166 66/167/167 88/186/186
f 88/186/186 66/167/167 42/185/185
f 42/185/185 66/167/167 62/168/168
f 42/185/185 62/168/168 58/169/169
f 58/169/169 54/170/170 42/185/185
f 42/185/185 54/170/170 44/184/184
f 44/184/184 54/170/170 50/171/171
f 44/184/184 50/171/171 46/172/172
f 46/172/172 47/173/173 44/184/184
f 44/184/184 47/173/173 51/174/174
f 44/184/184 51/174/174 55/175/175
f 55/175/175 59/176/176 44/184/184
f 44/184/184 59/176/176 63/177/177
f 44/184/184 63/177/177 67/178/178
f 44/184/184 67/178/178 90/183/183
f 90/183/183 67/178/178 71/179/179
f 90/183/183 71/179/179 75/180/180
f 75/180/180 79/181/181 90/183/183
f 90/183/183 79/181/181 83/182/182
f 49/188/188 47/229/229 45/187/187
f 45/230/230 47/218/218 46/219/219
f 45/231/231 46/219/219 48/207/207
f 48/207/207 46/219/219 50/220/220
f 48/207/207 50/220/220 52/206/206
f 52/206/206 50/220/220 54/221/221
f 52/206/206 54/221/221 56/205/205
f 56/205/205 54/221/221 58/222/222
f 56/205/205 58/222/222 60/204/204
f 60/204/204 58/222/222 62/223/223
f 60/204/204 62/223/223 64/203/203
f 64/203/203 62/223/223 66/224/224
f 64/203/203 66/224/224 68/202/202
f 68/202/202 66/224/224 70/225/225
f 68/202/202 70/225/225 72/201/201
f 72/201/201 70/225/225 74/226/226
f 72/201/201 74/226/226 76/200/200
f 76/200/200 74/226/226 78/227/227
f 76/200/200 78/227/227 80/199/199
f 80/199/199 78/227/227 82/228/228
f 80/199/199 82/228/228 84/198/198
f 84/198/198 82/228/228 86/208/208
f 84/198/198 86/208/208 85/197/197
f 85/197/197 86/208/208 83/209/209
f 85/197/197 83/209/209 81/196/196
f 81/196/196 83/209/209 79/210/210
f 81/196/196 79/210/210 77/195/195
f 77/195/195 79/210/210 75/211/211
f 77/195/195 75/211/211 73/194/194
f 73/194/194 75/211/211 71/212/212
f 73/194/194 71/212/212 69/193/193
f 69/193/193 71/212/212 67/213/213
f 69/193/193 67/213/213 65/192/192
f 65/192/192 67/213/213 63/214/214
f 65/192/192 63/214/214 61/191/191
f 61/191/191 63/214/214 59/215/215
f 61/191/191 59/215/215 57/190/190
f 57/190/190 59/215/215 55/216/216
f 57/190/190 55/216/216 53/189/189
f 53/189/189 55/216/216 51/217/217
f 53/189/189 51/217/217 49/188/188
f 49/188/188 51/217/217 47/232/232

# 90 vertices
# 232 texture params
# 232 normals
# 160 facets

# 6 groups
